<?xml version="1.0" encoding="UTF-8" standalone="no"?>
<!-- Created with Inkscape (http://www.inkscape.org/) -->

<svg
   width="210mm"
   height="297mm"
   viewBox="0 0 210 297"
   version="1.1"
   id="svg1"
   xml:space="preserve"
   sodipodi:docname="br-collection.svg"
   inkscape:version="1.3.1 (91b66b0783, 2023-11-16)"
   xmlns:inkscape="http://www.inkscape.org/namespaces/inkscape"
   xmlns:sodipodi="http://sodipodi.sourceforge.net/DTD/sodipodi-0.dtd"
   xmlns="http://www.w3.org/2000/svg"
   xmlns:svg="http://www.w3.org/2000/svg"><sodipodi:namedview
     id="namedview1"
     pagecolor="#ffffff"
     bordercolor="#666666"
     borderopacity="1.0"
     inkscape:showpageshadow="2"
     inkscape:pageopacity="0.0"
     inkscape:pagecheckerboard="0"
     inkscape:deskcolor="#d1d1d1"
     inkscape:document-units="mm"
     inkscape:zoom="2.9184343"
     inkscape:cx="382.05417"
     inkscape:cy="363.37977"
     inkscape:window-width="1920"
     inkscape:window-height="1057"
     inkscape:window-x="-8"
     inkscape:window-y="-8"
     inkscape:window-maximized="1"
     inkscape:current-layer="layer1" /><defs
     id="defs1" /><g
     inkscape:label="Ebene 1"
     inkscape:groupmode="layer"
     id="layer1"><path
       style="fill:#000000;stroke-width:0.443736"
       d="m 145.07365,111.91187 c -5.62564,-0.15484 -7.99861,-0.79497 -10.06732,-2.71575 -0.98624,-0.91571 -1.59212,-1.68551 -2.47646,-3.14644 -0.84464,-1.39536 -2.91629,-5.17721 -2.91629,-5.32376 0,-0.0373 -0.50312,-1.011641 -1.56757,-3.035831 -0.2989,-0.56839 -0.54345,-1.05699 -0.54345,-1.08577 0,-0.0288 -0.33528,-0.68172 -0.74506,-1.45096 -0.40979,-0.76925 -0.74507,-1.417 -0.74507,-1.43944 0,-0.11681 -1.60127,-3.01748 -1.69288,-3.06662 -0.0592,-0.0318 -2.9236,-0.0258 -6.36527,0.0132 -5.37979,0.061 -6.27159,0.0943 -6.35737,0.23742 -0.0549,0.0916 -0.30461,0.96572 -0.55496,1.94253 -1.16077,4.52913 -1.94217,6.79353 -3.02605,8.769171 -2.21547,4.03825 -6.04529,6.63293 -11.930202,8.08264 -1.389966,0.34241 -4.720597,0.87844 -6.829753,1.09918 -2.029867,0.21244 -3.059116,0.23063 -15.615297,0.27602 l -13.442195,0.0486 v -0.23104 c 0,-0.26089 0.350299,-1.7391 0.803883,-3.39226 0.294113,-1.07195 0.619049,-2.32151 0.995846,-3.82958 0.09915,-0.39683 0.348322,-1.37087 0.553715,-2.16454 0.205393,-0.79366 0.570323,-2.267221 0.810956,-3.274561 0.240633,-1.00735 0.492256,-2.03134 0.559162,-2.27555 0.06691,-0.2442 0.32094,-1.26819 0.564519,-2.27554 0.431479,-1.78442 0.908297,-3.70242 1.255589,-5.0506 0.09436,-0.3663 0.260276,-1.04064 0.3687,-1.49852 0.470912,-1.9887 0.878199,-3.68153 0.98146,-4.07933 l 0.06483,-0.24976 h 9.736568 c 10.246952,0 10.821355,-0.0232 12.72089,-0.51484 3.911938,-1.0124 6.288908,-3.09504 6.814664,-5.97085 0.179729,-0.98309 0.17927,-1.15804 -0.0055,-2.08978 -0.499948,-2.52132 -2.220544,-4.17549 -5.182998,-4.98292 -0.928708,-0.25312 -0.935585,-0.2533 -10.770354,-0.29006 -7.884156,-0.0295 -9.841052,-0.065 -9.841052,-0.17866 0,-0.078 0.193038,-0.83754 0.428972,-1.6878 0.450402,-1.62315 0.812174,-2.99856 1.072183,-4.07629 0.08536,-0.35383 0.208286,-0.67265 0.27316,-0.70849 0.248943,-0.13753 15.395872,-0.17588 17.41108,-0.0441 2.891081,0.18908 4.958649,0.63737 7.217685,1.56493 4.019829,1.65053 6.607639,4.80214 7.134739,8.68913 0.28349,2.09057 -0.0768,3.94551 -1.19104,6.13194 -0.62505,1.22654 -2.81288,3.56761 -4.050648,4.33437 -0.505967,0.31343 -0.52525,0.48941 -0.05363,0.48941 0.561442,0 2.070868,0.62391 3.370738,1.39327 0.90609,0.5363 1.9479,1.41078 2.46133,2.06604 0.10596,0.13523 0.2152,0.22391 0.24275,0.19707 0.0275,-0.0269 0.13394,-0.37349 0.23642,-0.77032 0.10248,-0.39683 0.49207,-1.79546 0.86577,-3.10806 0.6573,-2.3088 0.95642,-3.4176 1.41904,-5.26032 l 0.21986,-0.87573 2.54989,-1.10398 c 1.40244,-0.60718 3.38023,-1.47723 4.39509,-1.93343 1.01485,-0.45621 1.86709,-0.80989 1.89385,-0.78596 0.0524,0.0468 0.0369,0.10793 -1.05926,4.18731 -1.66296,6.18838 -1.87263,6.97651 -1.87263,7.03887 0,0.10938 12.15289,0.0688 13.35665,-0.0446 1.99606,-0.18805 3.72754,-0.69989 5.07781,-1.50106 2.86781,-1.70158 4.20573,-4.08383 4.007,-7.13472 -0.10466,-1.6068 -0.54537,-2.75753 -1.45409,-3.79672 -1.3333,-1.52473 -2.61388,-2.22102 -5.15476,-2.80281 -0.9483,-0.21713 -1.42073,-0.22963 -10.39985,-0.27532 -8.07447,-0.0411 -9.40644,-0.0705 -9.40644,-0.20752 0,-0.0878 0.0819,-0.44612 0.18199,-0.79624 0.10009,-0.35013 0.38013,-1.41083 0.62231,-2.35712 0.24218,-0.94629 0.53747,-2.09517 0.65621,-2.55305 l 0.21589,-0.83252 h 5.96051 c 8.4217,0 11.96455,0.0988 13.65951,0.38092 7.19959,1.19836 11.85178,5.19244 12.92448,11.09617 0.37628,2.07085 0.11439,4.80384 -0.63928,6.67152 -1.24366,3.0819 -2.88363,5.08717 -5.74673,7.02678 -1.04852,0.71032 -3.4097,1.81038 -4.59514,2.14085 -0.41884,0.11676 -0.7618,0.26225 -0.76212,0.3233 -3.3e-4,0.061 0.10118,0.26085 0.22559,0.444 0.91752,1.3508 4.26171,7.21555 7.34228,12.876251 2.01791,3.70802 2.47675,4.49175 3.21691,5.49461 0.94665,1.28266 2.05361,2.21416 3.25757,2.74125 0.53056,0.23227 0.96845,0.45977 0.97311,0.50556 0.005,0.0458 -0.20108,0.073 -0.4572,0.0604 -0.25612,-0.0126 -0.96859,-0.0367 -1.58326,-0.0536 z m -56.50068,-7.7404 c 3.517287,-0.449 5.707198,-1.33518 7.700415,-3.11609 1.242761,-1.110381 1.668056,-1.734701 2.30686,-3.386371 0.3882,-1.00372 0.408229,-1.13473 0.415734,-2.71955 0.0064,-1.346 -0.03543,-1.7712 -0.218143,-2.21912 -0.583078,-1.42938 -1.465537,-2.45735 -2.803366,-3.26563 -1.135865,-0.68625 -2.148306,-1.03389 -4.106559,-1.41005 -0.986143,-0.18943 -1.029153,-0.18853 -2.150604,0.045 -0.629385,0.13105 -1.423736,0.295 -1.765223,0.36433 -0.403254,0.0819 -3.045477,0.14544 -7.53802,0.18134 l -6.917133,0.0553 -0.181122,0.51588 c -0.177471,0.50549 -0.352927,1.17731 -0.772505,2.95793 -0.115086,0.48841 -0.372916,1.5124 -0.572954,2.27554 -0.200038,0.76314 -0.586112,2.31162 -0.857942,3.44107 -0.27183,1.12945 -0.628676,2.553051 -0.792992,3.163561 -0.668189,2.48265 -0.807664,3.03509 -0.807664,3.19909 0,0.15361 0.925603,0.16834 8.785545,0.13986 7.500352,-0.0272 9.003529,-0.0597 10.275673,-0.22206 z"
       id="path1" /><text
       xml:space="preserve"
       style="font-style:normal;font-weight:normal;font-size:13.6129px;line-height:1.25;font-family:sans-serif;letter-spacing:0px;word-spacing:0px;fill:#000000;fill-opacity:1;stroke:none;stroke-width:0.340324"
       x="54.289143"
       y="133.64543"
       id="text1"
       transform="scale(1.084107,0.92241816)"><tspan
         sodipodi:role="line"
         id="tspan1"
         x="54.289143"
         y="133.64543"
         style="stroke-width:0.340324">COLLECTION</tspan></text></g></svg>
