<svg version="1.1" xmlns="http://www.w3.org/2000/svg" xmlns:xlink="http://www.w3.org/1999/xlink" xmlns:ev="http://www.w3.org/2001/xml-events" xmlns:meerk40t="https://github.com/meerk40t/meerk40t/wiki/Namespace" width="320.0mm" height="200.0mm" viewBox="0 0 825637 516023" xmlns:inkscape="http://www.inkscape.org/namespaces/inkscape">
	<g type="op engrave" speed="35.0" color="blue" frequency="30.0" id="meerk40t:3" allowed_attributes="['stroke']" power="300" dwell_time="50.0" dangerous="False" lock="False" output="False" />
	<g type="op raster" speed="250.0" dpi="300" color="black" frequency="30.0" id="meerk40t:74" stopop="False" allowed_attributes="[]" power="500" dwell_time="50.0" raster_preference_top="False" output="False" dangerous="False" use_grayscale="True" consider_laserspot="False" lock="False" />
	<g type="op raster" speed="250.0" dpi="500" color="black" frequency="30.0" stopop="False" allowed_attributes="[]" power="500.0" dwell_time="50.0" raster_preference_top="False" dangerous="False" use_grayscale="True" consider_laserspot="False" id="meerk40t:15" lock="False" references="tspan1 path1" />
	<g inkscape:label="Brillenparkplatz.dxf" label_display="False">
		<g inkscape:label="Group" label_display="False">
			<g inkscape:label="Group" label_display="False" />
		</g>
	</g>
	<g inkscape:label="Ebene 1" label_display="False">
		<path d="M 145.07365,111.91187 C 139.44801,111.75703 137.07504,111.1169 135.00633,109.19612 C 134.02009,108.28041 133.41421,107.51061 132.52987,106.04968 C 131.68523,104.65432 129.61358,100.87247 129.61358,100.72592 C 129.61358,100.68862 129.11046,99.714279 128.04601,97.690089 C 127.74711,97.121699 127.50256,96.633099 127.50256,96.604319 C 127.50256,96.575519 127.16728,95.922599 126.7575,95.153359 C 126.34771,94.384109 126.01243,93.736359 126.01243,93.713919 C 126.01243,93.597109 124.41116,90.696439 124.31955,90.647299 C 124.26035,90.615499 121.39595,90.621499 117.95428,90.660499 C 112.57449,90.721499 111.68269,90.754799 111.59691,90.897919 C 111.54201,90.989519 111.2923,91.863639 111.04195,92.840449 C 109.88118,97.369579 109.09978,99.633979 108.0159,101.60962 C 105.80043,105.64787 101.97061,108.24255 96.085698,109.69226 C 94.695732,110.03467 91.365101,110.5707 89.255945,110.79144 C 87.226078,111.00388 86.196829,111.02207 73.640648,111.06746 L 60.198453,111.11606 L 60.198453,110.88502 C 60.198453,110.62413 60.548752,109.14592 61.002336,107.49276 C 61.296449,106.42081 61.621385,105.17125 61.998182,103.66318 C 62.097332,103.26635 62.346504,102.29231 62.551897,101.49864 C 62.75729,100.70498 63.12222,99.231419 63.362853,98.224079 C 63.603486,97.216729 63.855109,96.192739 63.922015,95.948529 C 63.988925,95.704329 64.242955,94.680339 64.486534,93.672989 C 64.918013,91.888569 65.394831,89.970569 65.742123,88.622389 C 65.836483,88.256089 66.002399,87.581749 66.110823,87.123869 C 66.581735,85.135169 66.989022,83.442339 67.092283,83.044539 L 67.157113,82.794779 L 76.893681,82.794779 C 87.140633,82.794779 87.715036,82.771579 89.614571,82.279939 C 93.526509,81.267539 95.903479,79.184899 96.429235,76.309089 C 96.608964,75.325999 96.608505,75.151049 96.423735,74.219309 C 95.923787,71.697989 94.203191,70.043819 91.240737,69.236389 C 90.312029,68.983269 90.305152,68.983089 80.470383,68.946329 C 72.586227,68.916829 70.629331,68.881329 70.629331,68.767669 C 70.629331,68.689669 70.822369,67.930129 71.058303,67.079869 C 71.508705,65.456719 71.870477,64.081309 72.130486,63.003579 C 72.215846,62.649749 72.338772,62.330929 72.403646,62.295089 C 72.652589,62.157559 87.799518,62.119209 89.814726,62.250989 C 92.705807,62.440069 94.773375,62.888359 97.032411,63.815919 C 101.05224,65.466449 103.64005,68.618059 104.16715,72.505049 C 104.45064,74.595619 104.09035,76.450559 102.97611,78.636989 C 102.35106,79.863529 100.16323,82.204599 98.925462,82.971359 C 98.419495,83.284789 98.400212,83.460769 98.871832,83.460769 C 99.433274,83.460769 100.9427,84.084679 102.24257,84.854039 C 103.14866,85.390339 104.19047,86.264819 104.7039,86.920079 C 104.80986,87.055309 104.9191,87.143989 104.94665,87.117149 C 104.97415,87.090249 105.08059,86.743659 105.18307,86.346829 C 105.28555,85.949999 105.67514,84.551369 106.04884,83.238769 C 106.70614,80.929969 107.00526,79.821169 107.46788,77.978449 L 107.68774,77.102719 L 110.23763,75.998739 C 111.64007,75.391559 113.61786,74.521509 114.63272,74.065309 C 115.64757,73.609099 116.49981,73.255419 116.52657,73.279349 C 116.57897,73.326149 116.56347,73.387279 115.46731,77.466659 C 113.80435,83.655039 113.59468,84.443169 113.59468,84.505529 C 113.59468,84.614909 125.74757,84.574329 126.95133,84.460929 C 128.94739,84.272879 130.67887,83.761039 132.02914,82.959869 C 134.89695,81.258289 136.23487,78.876039 136.03614,75.825149 C 135.93148,74.218349 135.49077,73.067619 134.58205,72.028429 C 133.24875,70.503699 131.96817,69.807409 129.42729,69.225619 C 128.47899,69.008489 128.00656,68.995989 119.02744,68.950299 C 110.95297,68.909199 109.621,68.879799 109.621,68.742779 C 109.621,68.654979 109.7029,68.296659 109.80299,67.946539 C 109.90308,67.596409 110.18312,66.535709 110.4253,65.589419 C 110.66748,64.643129 110.96277,63.494249 111.08151,63.036369 L 111.2974,62.203849 L 117.25791,62.203849 C 125.67961,62.203849 129.22246,62.302649 130.91742,62.584769 C 138.11701,63.783129 142.7692,67.777209 143.8419,73.680939 C 144.21818,75.751789 143.95629,78.484779 143.20262,80.352459 C 141.95896,83.434359 140.31899,85.439629 137.45589,87.379239 C 136.40737,88.089559 134.04619,89.189619 132.86075,89.520089 C 132.44191,89.636849 132.09895,89.782339 132.09863,89.843389 C 132.0983,89.904389 132.19981,90.104239 132.32422,90.287389 C 133.24174,91.638189 136.58593,97.502939 139.6665,103.16364 C 141.68441,106.87166 142.14325,107.65539 142.88341,108.65825 C 143.83006,109.94091 144.93702,110.87241 146.14098,111.3995 C 146.67154,111.63177 147.10943,111.85927 147.11409,111.90506 C 147.11909,111.95086 146.91301,111.97806 146.65689,111.96546 C 146.40077,111.95286 145.6883,111.92876 145.07363,111.91186 L 145.07365,111.91187 M 88.57297,104.17147 C 92.090257,103.72247 94.280168,102.83629 96.273385,101.05538 C 97.516146,99.944999 97.941441,99.320679 98.580245,97.669009 C 98.968445,96.665289 98.988474,96.534279 98.995979,94.949459 C 99.002379,93.603459 98.960549,93.178259 98.777836,92.730339 C 98.194758,91.300959 97.312299,90.272989 95.97447,89.464709 C 94.838605,88.778459 93.826164,88.430819 91.867911,88.054659 C 90.881768,87.865229 90.838758,87.866129 89.717307,88.099659 C 89.087922,88.230709 88.293571,88.394659 87.952084,88.463989 C 87.54883,88.545889 84.906607,88.609429 80.414064,88.645329 L 73.496931,88.700629 L 73.315809,89.216509 C 73.138338,89.721999 72.962882,90.393819 72.543304,92.174439 C 72.428218,92.662849 72.170388,93.686839 71.97035,94.449979 C 71.770312,95.213119 71.384238,96.761599 71.112408,97.891049 C 70.840578,99.020499 70.483732,100.4441 70.319416,101.05461 C 69.651227,103.53726 69.511752,104.0897 69.511752,104.2537 C 69.511752,104.40731 70.437355,104.42204 78.297297,104.39356 C 85.797649,104.36636 87.300826,104.33386 88.57297,104.1715 L 88.57297,104.17147" transform="matrix(880.6223163111354, 0.0, 0.0, 880.6223163111354, 180912.60572714335, 174612.35564794388)" stroke_scale="True" mktablength="5160.23622047244" mktabpositions="" type="elem path" id="path1" lock="False" hidden="False" label_display="False" points_dirty="True" stroke-linecap="butt" stroke-linejoin="miter" fill-rule="nonzero" stroke="none" stroke-width="1.3000941343400738" fill="#000000" bounds="233924.70684635037, 229360.39158474118, 310464.6348868682, 273214.35211149027" paint_bounds="233924.70684635037, 229360.39158474118, 310464.6348868682, 273214.35211149027" />
		<text transform="matrix(906.5373247246009, 0.0, 0.0, 812.3020166666561, 232645.54047373647, 273162.48817132175)" font-family="sans-serif" font-style="normal" font-variant="normal" font-stretch="normal" font-size="10.209675" line_height="16.0" dominant-baseline="hanging" text="COLLECTION" baseline="hanging" stroke_scale="True" underline="False" strikethrough="False" overline="False" raw_bbox="(0, 3, 88, 13)" font_style="normal" font_variant="normal" font_weight="normal" font_stretch="normal" font_size="10.209675" font_family="sans-serif" offset_x="0" offset_y="0" type="elem text" id="tspan1" lock="False" hidden="False" label_display="False" bounds_with_variables_translated="False" ascent="12.323396444320679" points_dirty="True" stroke="none" stroke-width="0.000396589275929861" fill="#000000" bounds="230832.46582428727, 273974.79018798843, 314233.8996989506, 285347.0184213216" paint_bounds="230832.46582428727, 273974.79018798843, 314233.8996989506, 285347.0184213216">COLLECTION</text>
	</g>
	<g inkscape:label="Group" label_display="False">
		<path d="M 145.07365,111.91187 C 139.44801,111.75703 137.07504,111.1169 135.00633,109.19612 C 134.02009,108.28041 133.41421,107.51061 132.52987,106.04968 C 131.68523,104.65432 129.61358,100.87247 129.61358,100.72592 C 129.61358,100.68862 129.11046,99.714279 128.04601,97.690089 C 127.74711,97.121699 127.50256,96.633099 127.50256,96.604319 C 127.50256,96.575519 127.16728,95.922599 126.7575,95.153359 C 126.34771,94.384109 126.01243,93.736359 126.01243,93.713919 C 126.01243,93.597109 124.41116,90.696439 124.31955,90.647299 C 124.26035,90.615499 121.39595,90.621499 117.95428,90.660499 C 112.57449,90.721499 111.68269,90.754799 111.59691,90.897919 C 111.54201,90.989519 111.2923,91.863639 111.04195,92.840449 C 109.88118,97.369579 109.09978,99.633979 108.0159,101.60962 C 105.80043,105.64787 101.97061,108.24255 96.085698,109.69226 C 94.695732,110.03467 91.365101,110.5707 89.255945,110.79144 C 87.226078,111.00388 86.196829,111.02207 73.640648,111.06746 L 60.198453,111.11606 L 60.198453,110.88502 C 60.198453,110.62413 60.548752,109.14592 61.002336,107.49276 C 61.296449,106.42081 61.621385,105.17125 61.998182,103.66318 C 62.097332,103.26635 62.346504,102.29231 62.551897,101.49864 C 62.75729,100.70498 63.12222,99.231419 63.362853,98.224079 C 63.603486,97.216729 63.855109,96.192739 63.922015,95.948529 C 63.988925,95.704329 64.242955,94.680339 64.486534,93.672989 C 64.918013,91.888569 65.394831,89.970569 65.742123,88.622389 C 65.836483,88.256089 66.002399,87.581749 66.110823,87.123869 C 66.581735,85.135169 66.989022,83.442339 67.092283,83.044539 L 67.157113,82.794779 L 76.893681,82.794779 C 87.140633,82.794779 87.715036,82.771579 89.614571,82.279939 C 93.526509,81.267539 95.903479,79.184899 96.429235,76.309089 C 96.608964,75.325999 96.608505,75.151049 96.423735,74.219309 C 95.923787,71.697989 94.203191,70.043819 91.240737,69.236389 C 90.312029,68.983269 90.305152,68.983089 80.470383,68.946329 C 72.586227,68.916829 70.629331,68.881329 70.629331,68.767669 C 70.629331,68.689669 70.822369,67.930129 71.058303,67.079869 C 71.508705,65.456719 71.870477,64.081309 72.130486,63.003579 C 72.215846,62.649749 72.338772,62.330929 72.403646,62.295089 C 72.652589,62.157559 87.799518,62.119209 89.814726,62.250989 C 92.705807,62.440069 94.773375,62.888359 97.032411,63.815919 C 101.05224,65.466449 103.64005,68.618059 104.16715,72.505049 C 104.45064,74.595619 104.09035,76.450559 102.97611,78.636989 C 102.35106,79.863529 100.16323,82.204599 98.925462,82.971359 C 98.419495,83.284789 98.400212,83.460769 98.871832,83.460769 C 99.433274,83.460769 100.9427,84.084679 102.24257,84.854039 C 103.14866,85.390339 104.19047,86.264819 104.7039,86.920079 C 104.80986,87.055309 104.9191,87.143989 104.94665,87.117149 C 104.97415,87.090249 105.08059,86.743659 105.18307,86.346829 C 105.28555,85.949999 105.67514,84.551369 106.04884,83.238769 C 106.70614,80.929969 107.00526,79.821169 107.46788,77.978449 L 107.68774,77.102719 L 110.23763,75.998739 C 111.64007,75.391559 113.61786,74.521509 114.63272,74.065309 C 115.64757,73.609099 116.49981,73.255419 116.52657,73.279349 C 116.57897,73.326149 116.56347,73.387279 115.46731,77.466659 C 113.80435,83.655039 113.59468,84.443169 113.59468,84.505529 C 113.59468,84.614909 125.74757,84.574329 126.95133,84.460929 C 128.94739,84.272879 130.67887,83.761039 132.02914,82.959869 C 134.89695,81.258289 136.23487,78.876039 136.03614,75.825149 C 135.93148,74.218349 135.49077,73.067619 134.58205,72.028429 C 133.24875,70.503699 131.96817,69.807409 129.42729,69.225619 C 128.47899,69.008489 128.00656,68.995989 119.02744,68.950299 C 110.95297,68.909199 109.621,68.879799 109.621,68.742779 C 109.621,68.654979 109.7029,68.296659 109.80299,67.946539 C 109.90308,67.596409 110.18312,66.535709 110.4253,65.589419 C 110.66748,64.643129 110.96277,63.494249 111.08151,63.036369 L 111.2974,62.203849 L 117.25791,62.203849 C 125.67961,62.203849 129.22246,62.302649 130.91742,62.584769 C 138.11701,63.783129 142.7692,67.777209 143.8419,73.680939 C 144.21818,75.751789 143.95629,78.484779 143.20262,80.352459 C 141.95896,83.434359 140.31899,85.439629 137.45589,87.379239 C 136.40737,88.089559 134.04619,89.189619 132.86075,89.520089 C 132.44191,89.636849 132.09895,89.782339 132.09863,89.843389 C 132.0983,89.904389 132.19981,90.104239 132.32422,90.287389 C 133.24174,91.638189 136.58593,97.502939 139.6665,103.16364 C 141.68441,106.87166 142.14325,107.65539 142.88341,108.65825 C 143.83006,109.94091 144.93702,110.87241 146.14098,111.3995 C 146.67154,111.63177 147.10943,111.85927 147.11409,111.90506 C 147.11909,111.95086 146.91301,111.97806 146.65689,111.96546 C 146.40077,111.95286 145.6883,111.92876 145.07363,111.91186 L 145.07365,111.91187 M 88.57297,104.17147 C 92.090257,103.72247 94.280168,102.83629 96.273385,101.05538 C 97.516146,99.944999 97.941441,99.320679 98.580245,97.669009 C 98.968445,96.665289 98.988474,96.534279 98.995979,94.949459 C 99.002379,93.603459 98.960549,93.178259 98.777836,92.730339 C 98.194758,91.300959 97.312299,90.272989 95.97447,89.464709 C 94.838605,88.778459 93.826164,88.430819 91.867911,88.054659 C 90.881768,87.865229 90.838758,87.866129 89.717307,88.099659 C 89.087922,88.230709 88.293571,88.394659 87.952084,88.463989 C 87.54883,88.545889 84.906607,88.609429 80.414064,88.645329 L 73.496931,88.700629 L 73.315809,89.216509 C 73.138338,89.721999 72.962882,90.393819 72.543304,92.174439 C 72.428218,92.662849 72.170388,93.686839 71.97035,94.449979 C 71.770312,95.213119 71.384238,96.761599 71.112408,97.891049 C 70.840578,99.020499 70.483732,100.4441 70.319416,101.05461 C 69.651227,103.53726 69.511752,104.0897 69.511752,104.2537 C 69.511752,104.40731 70.437355,104.42204 78.297297,104.39356 C 85.797649,104.36636 87.300826,104.33386 88.57297,104.1715 L 88.57297,104.17147" transform="matrix(880.6223163111354, 0.0, 0.0, 880.6223163111354, 180912.60572714335, 174612.35564794388)" stroke_scale="True" mktablength="5160.23622047244" mktabpositions="" type="elem path" id="meerk40t:22" label="Copy" lock="False" hidden="False" label_display="False" points_dirty="True" stroke-linecap="butt" stroke-linejoin="miter" fill-rule="nonzero" inkscape:label="Copy" stroke="none" stroke-width="1.3000941343400738" fill="#000000" bounds="233924.70684635037, 229360.39158474118, 310464.6348868682, 273214.35211149027" paint_bounds="233924.70684635037, 229360.39158474118, 310464.6348868682, 273214.35211149027" />
		<text transform="matrix(906.5373247246009, 0.0, 0.0, 812.3020166666561, 232645.54047373647, 273162.48817132175)" font-family="sans-serif" font-style="normal" font-variant="normal" font-stretch="normal" font-size="10.209675" line_height="16.0" dominant-baseline="hanging" text="COLLECTION" baseline="hanging" stroke_scale="True" underline="False" strikethrough="False" overline="False" raw_bbox="(0, 3, 88, 13)" font_style="normal" font_variant="normal" font_weight="normal" font_stretch="normal" font_size="10.209675" font_family="sans-serif" offset_x="0" offset_y="0" type="elem text" id="meerk40t:23" label="Copy" lock="False" hidden="False" label_display="False" bounds_with_variables_translated="False" ascent="12.323396444320679" points_dirty="True" inkscape:label="Copy" stroke="none" stroke-width="0.000396589275929861" fill="#000000" bounds="230832.46582428727, 273974.79018798843, 314233.8996989506, 285347.0184213216" paint_bounds="230832.46582428727, 273974.79018798843, 314233.8996989506, 285347.0184213216">COLLECTION</text>
	</g>
</svg>