<?xml version="1.0" encoding="UTF-8" standalone="no"?>
<!-- Created with Inkscape (http://www.inkscape.org/) -->

<svg
   width="210mm"
   height="297mm"
   viewBox="0 0 210 297"
   version="1.1"
   id="svg1"
   xml:space="preserve"
   inkscape:version="1.3.1 (91b66b0783, 2023-11-16)"
   sodipodi:docname="Harfe.svg"
   xmlns:inkscape="http://www.inkscape.org/namespaces/inkscape"
   xmlns:sodipodi="http://sodipodi.sourceforge.net/DTD/sodipodi-0.dtd"
   xmlns="http://www.w3.org/2000/svg"
   xmlns:svg="http://www.w3.org/2000/svg"><sodipodi:namedview
     id="namedview1"
     pagecolor="#ffffff"
     bordercolor="#666666"
     borderopacity="1.0"
     inkscape:showpageshadow="2"
     inkscape:pageopacity="0.0"
     inkscape:pagecheckerboard="0"
     inkscape:deskcolor="#d1d1d1"
     inkscape:document-units="mm"
     inkscape:zoom="0.72960859"
     inkscape:cx="396.78809"
     inkscape:cy="561.25984"
     inkscape:window-width="1920"
     inkscape:window-height="1057"
     inkscape:window-x="-8"
     inkscape:window-y="-8"
     inkscape:window-maximized="1"
     inkscape:current-layer="layer1" /><defs
     id="defs1" /><g
     inkscape:label="Ebene 1"
     inkscape:groupmode="layer"
     id="layer1"><path
       style="fill:#000000"
       d="m 84.878435,151.98617 c -2.941575,-1.34347 -3.828626,-1.87377 -4.308707,-2.57585 -0.754736,-1.10375 -0.673999,-1.55518 0.398853,-2.23013 0.803973,-0.50579 0.847277,-0.61674 0.856954,-2.19566 0.0066,-1.0799 -0.135326,-1.88504 -0.404844,-2.29638 -0.495222,-0.7558 -0.406789,-2.2527 0.150452,-2.54666 0.218282,-0.11515 0.727299,-0.27901 1.13115,-0.36413 0.788169,-0.16612 2.530644,-1.61294 3.381289,-2.80756 0.443186,-0.6224 0.474039,-0.83758 0.204815,-1.42846 -0.25846,-0.56726 -0.241173,-0.82741 0.09365,-1.40935 0.225841,-0.39252 0.354112,-0.87101 0.285047,-1.06331 -0.06907,-0.19231 0.110445,-0.60903 0.398911,-0.92605 0.501666,-0.55132 0.532357,-1.11963 0.705477,-13.06336 0.165518,-11.41921 0.143117,-12.54477 -0.261976,-13.16302 -0.413424,-0.63096 -0.413588,-0.7209 -0.0025,-1.34836 0.37446,-0.5715 0.391639,-0.80745 0.114573,-1.57367 -0.300604,-0.8313 -0.263277,-1.00216 0.480231,-2.19821 l 0.806168,-1.296852 0.192047,-22.46334 0.192048,-22.46334 -0.690995,-1.45521 -0.690995,-1.4552 0.174355,-10.98021 0.174356,-10.980212 -0.704805,-0.698319 c -0.387643,-0.384076 -1.054976,-0.843365 -1.482962,-1.020642 -0.883293,-0.365872 -1.160147,-0.966242 -0.908299,-1.969684 0.22101,-0.880574 0.618831,-1.078053 2.89067,-1.434938 5.77122,-0.906606 9.782698,-0.878943 14.434232,0.09954 4.16322,0.87576 4.6017,1.554243 2.16837,3.355241 l -1.52135,1.126013 2.38125,0.328074 c 3.02593,0.416894 7.79374,1.955287 9.95419,3.211837 3.46295,2.014106 7.4548,6.867182 9.35548,11.373872 0.47945,1.13682 1.37319,4.24815 1.98609,6.91406 1.2585,5.47411 1.68908,6.84854 2.89203,9.23157 1.10158,2.18221 2.56657,3.74362 4.4528,4.74582 3.19493,1.69755 6.78209,2.07406 10.41672,1.09333 1.97944,-0.53411 3.37544,-1.24871 8.15443,-4.17419 2.7305,-1.67148 4.26863,-2.15137 6.89555,-2.15137 3.91691,0 5.97325,1.14588 7.45399,4.15369 1.22087,2.47994 1.19445,3.98816 -0.12193,6.95881 -2.10991,4.7614 -6.62495,12.78313 -18.8385,33.46979 -7.68116,13.00993 -10.13155,17.37146 -15.06215,26.80955 -3.4275,6.56089 -3.6108,6.98725 -3.15345,7.335 0.63017,0.47915 2.34114,1.10115 3.58297,1.30254 1.34687,0.21843 2.11246,1.22418 2.00852,2.63857 -0.0702,0.95584 -0.2199,1.16695 -1.37396,1.93822 -0.84011,0.56145 -1.47281,0.80916 -1.80084,0.70505 -0.34582,-0.10976 -0.7151,0.0654 -1.16804,0.55417 -0.61172,0.66006 -0.78705,0.70566 -2.29416,0.59664 -1.38709,-0.10033 -1.69472,-0.0404 -2.05113,0.39978 -0.23061,0.2848 -0.88818,0.59399 -1.46125,0.6871 -0.83483,0.13563 -1.04787,0.28579 -1.07174,0.75542 -0.0749,1.47384 -1.15183,1.82764 -9.03532,2.9684 -3.82242,0.55311 -5.95156,0.98397 -6.64274,1.34423 -1.3233,0.68974 -4.85284,1.00235 -13.396312,1.18651 l -6.614583,0.14258 z m 18.663555,-18.89858 0.57801,-0.72761 -0.18046,-39.551692 c -0.0992,-21.75343 -0.22615,-39.59738 -0.282,-39.65323 -0.26014,-0.26014 -2.54352,0.31148 -3.15007,0.78859 l -0.680077,0.53495 v 22.63074 22.63074 l 0.826267,1.043252 c 0.6777,0.85567 0.79976,1.20653 0.67887,1.95145 -0.0811,0.49952 -0.0362,0.97696 0.0998,1.06097 0.35412,0.21886 0.30501,1.28076 -0.0769,1.66266 -0.24389,0.24389 -0.34968,3.51517 -0.42767,13.22413 -0.0935,11.63666 -0.0617,12.93483 0.32405,13.25501 0.23522,0.19521 0.42768,0.52398 0.42768,0.73058 0,0.46995 0.55939,1.12364 0.97298,1.137 0.17134,0.006 0.57163,-0.31736 0.88953,-0.71754 z m 2.02749,-1.97013 0.8725,-0.84566 V 92.100718 c 0,-37.46784 -0.009,-38.17612 -0.51178,-38.44497 -0.28147,-0.15064 -0.75772,-0.27389 -1.05833,-0.27389 h -0.54656 v 39.29062 c 0,21.609852 0.0836,39.290632 0.18584,39.290632 0.10221,0 0.57846,-0.38054 1.05833,-0.84565 z m 3.51833,-38.852132 v -35.35705 l -0.96144,-1.23404 c -0.52879,-0.67873 -1.00504,-1.23405 -1.05833,-1.23405 -0.0533,0 -0.0969,16.93104 -0.0969,37.62453 v 37.624532 l 1.05833,-1.03343 1.05834,-1.03344 z m 2.63455,0.70394 0.0113,-31.71779 -0.80997,-1.41568 c -0.44548,-0.77862 -0.92173,-1.48475 -1.05833,-1.56917 -0.15428,-0.0953 -0.24809,12.90722 -0.24765,34.32409 l 7.2e-4,34.477602 1.04633,-1.19063 1.04634,-1.19062 z m 2.37969,1.30496 -0.0128,-28.06008 -0.90036,-1.71979 -0.90037,-1.71979 -0.0128,30.67742 -0.0128,30.677422 0.92604,-0.89755 0.92604,-0.89756 z m 1.78618,26.259892 0.8725,-0.84565 V 94.649038 69.609608 l -0.91344,-1.03627 -0.91343,-1.03627 -0.0788,26.92137 c -0.0433,14.806752 -0.0249,26.921362 0.0409,26.921352 0.0658,-1e-5 0.51232,-0.38056 0.99219,-0.84567 z m 2.58157,-2.79236 0.92244,-0.99219 0.007,-22.344702 0.007,-22.34469 -0.84565,-0.8725 c -0.46511,-0.47987 -0.94136,-0.87249 -1.05833,-0.87249 -0.11698,0 -0.21269,10.89422 -0.21269,24.20938 0,13.315152 0.0579,24.209372 0.12874,24.209372 0.0708,0 0.54383,-0.44648 1.05117,-0.99218 z m 3.5826,-23.854942 v -20.10512 l -0.88488,-0.67492 c -0.48667,-0.37121 -0.96292,-0.67492 -1.05833,-0.67492 -0.0954,0 -0.17048,9.85242 -0.16685,21.89427 l 0.007,21.894272 1.05172,-1.11423 1.05172,-1.11424 z m 2.47596,-0.79902 -0.13418,-17.87782 -0.90631,-0.59916 -0.90631,-0.59917 0.0113,19.64917 0.0113,19.649162 1.02921,-1.17218 1.0292,-1.17218 z m 2.5401,-0.84748 c 0.0103,-15.05699 -0.0174,-16.05076 -0.452,-16.17571 -0.25466,-0.0732 -0.65547,-0.2128 -0.89067,-0.31018 -0.38321,-0.15864 -0.44785,0.44464 -0.62195,5.80514 -0.10687,3.2902 -0.10654,11.09647 7.2e-4,17.34727 l 0.19503,11.365082 0.87893,-0.99451 0.87893,-0.99451 z m 1.79696,13.806652 0.85989,-1.03577 V 91.001348 76.991488 L 129.13,76.831948 c -1.64918,-0.44196 -1.52135,-1.70617 -1.52135,15.04678 0,8.367452 0.0893,15.211402 0.19843,15.208782 0.10914,-0.003 0.58539,-0.47087 1.05834,-1.04054 z m 3.49444,-16.322742 c 0.0123,-13.32077 0.10482,-12.52987 -1.46556,-12.52987 h -0.63982 l 7.1e-4,13.55989 7.2e-4,13.559902 1.04634,-1.19062 1.04633,-1.19063 z m 2.52808,8.76909 c 0.0792,-0.29104 0.11091,-5.11308 0.0704,-10.71563 l -0.0737,-10.18646 -0.99219,-0.0821 -0.99219,-0.0821 v 11.83401 11.834012 l 0.92179,-1.03627 c 0.50698,-0.569942 0.98661,-1.274392 1.06584,-1.565432 z m 2.77487,-11.96755 v -8.80225 h -1.19062 -1.19063 l 0.004,9.45886 c 0.002,5.20237 0.0747,9.72383 0.16146,10.04768 0.1465,0.54653 0.23179,0.49935 1.18701,-0.65661 l 1.02917,-1.24543 z m 1.52136,6.97254 0.85989,-1.14219 v -7.44859 c 0,-4.09672 -0.10418,-7.44859 -0.23151,-7.44859 -0.12733,0 -0.60358,0.0744 -1.05833,0.16537 l -0.82683,0.16536 v 8.43359 c 0,4.63848 0.0893,8.42992 0.19844,8.42542 0.10914,-0.005 0.58539,-0.52217 1.05834,-1.15037 z m 3.50572,-10.25256 v -6.05139 h -0.63981 c -1.53535,0 -1.47779,-0.28937 -1.466,7.37049 l 0.0109,7.0493 1.04748,-1.15851 1.04748,-1.1585 z m 2.58261,-1.95035 -0.0691,-4.7625 -0.66146,0.0693 c -1.3655,0.14304 -1.32363,-0.0509 -1.31164,6.07397 l 0.0113,5.76299 1.04997,-1.19062 1.04997,-1.19063 z m 2.70835,-1.90261 c 3.9e-4,-1.93505 -0.11199,-3.55977 -0.25223,-3.64644 -0.13911,-0.086 -0.67489,0.02 -1.19062,0.23547 l -0.93769,0.39179 0.002,2.99006 c 0.001,1.64453 0.0802,3.63859 0.17532,4.43123 l 0.17301,1.44116 1.0146,-1.17658 1.01459,-1.17658 z m 2.38125,-1.99999 c 6.4e-4,-2.31271 -0.0488,-2.57969 -0.47789,-2.57969 -1.20916,0 -1.39313,0.49213 -1.53539,4.10729 l -0.1351,3.43333 1.07383,-1.19062 1.07383,-1.19063 z m 2.63865,-2.22768 0.008,-1.63236 -1.05833,0.41573 -1.05833,0.41572 0.008,2.40726 0.008,2.40726 1.04254,-1.19062 c 0.96918,-1.10684 1.0431,-1.3055 1.05044,-2.82299 z m 2.23259,-1.16136 c 0.84506,-1.02722 1.4783,-1.92585 1.4072,-1.99695 -0.0711,-0.0711 -0.79831,0.19884 -1.616,0.59988 l -1.48673,0.72915 v 1.2678 c 0,0.69729 0.0358,1.2678 0.0795,1.2678 0.0437,0 0.77094,-0.84045 1.61601,-1.86768 z"
       id="path1" /></g></svg>
