<svg version="1.1" xmlns="http://www.w3.org/2000/svg" xmlns:xlink="http://www.w3.org/1999/xlink" xmlns:ev="http://www.w3.org/2001/xml-events" xmlns:meerk40t="https://github.com/meerk40t/meerk40t/wiki/Namespace" width="320.0mm" height="200.0mm" viewBox="0 0 825637 516023" xmlns:inkscape="http://www.inkscape.org/namespaces/inkscape">
	<g type="op raster" lock="False" color="black" stopop="False" allowed_attributes="[]" output="True" speed="150.0" power="1000" dwell_time="50.0" references="meerk40t:7" id="meerk40t:3" />
	<g type="op cut" lock="False" speed="12.0" color="#ff0000" frequency="30.0" id="meerk40t:49" dangerous="False" kerf="0.0" allowed_attributes="['stroke']" power="250" dwell_time="50.0" passes_custom="False" passes="2" hex_color="#ff0000ff" coolant="0" references="meerk40t:18 meerk40t:17 meerk40t:19" />
	<g inkscape:label="Ebene 1" label_display="False">
		<g label_display="False">
			<path d="M 252171.888065,461418.263797 C 258829.773378,457915.112451 272807.121776,450543.104815 274951.962382,449403.461286 C 276177.625425,448752.214501 279353.222157,447078.787048 282008.83936,445684.738261 C 289778.720367,441605.985431 300788.587944,435809.156991 302931.838953,434668.509506 C 309064.239712,431404.85746 312679.152285,429589.356279 313045.122162,429589.356279 C 313272.783146,429589.356279 317720.169125,431830.409342 322928.205214,434569.480395 C 328136.241304,437308.551447 334848.705573,440834.012928 337844.775437,442403.837691 C 340840.845301,443973.662455 344183.586776,445730.683195 345273.060389,446308.320479 C 346362.547945,446885.957762 354217.960432,451006.318993 362729.527934,455464.706658 C 371241.109379,459923.080379 381253.995586,465179.23664 384980.373777,467145.0663 C 388706.765911,469110.882017 391792.620125,470682.296377 391837.826036,470637.090466 C 391902.525427,470572.391075 383424.604398,420962.068895 380422.566573,403837.966587 C 377613.469584,387814.395352 376877.193297,383190.856913 377076.08815,382823.367157 C 377196.284003,382601.36737 378613.674769,381143.455821 380225.93062,379583.545124 C 381838.200416,378023.634427 385775.785866,374184.924706 388976.146848,371053.083727 C 400056.489352,360209.939789 404995.046898,355386.516484 414852.919498,345779.577127 C 420299.450931,340471.68924 427207.045218,333723.528755 430203.129026,330783.680431 C 433199.198891,327843.832107 436762.127454,324367.556108 438120.731015,323058.620486 C 440422.077218,320841.397435 440549.007942,320669.358406 439977.798767,320541.772322 C 439640.581076,320466.475616 435409.115372,319840.509002 430574.536999,319150.791178 C 422871.544566,318051.863646 402636.656468,315133.809535 371272.064692,310598.828388 C 366097.019715,309850.574347 359745.840194,308934.826967 357158.324678,308563.823366 L 352453.744673,307889.290377 L 347206.916837,297365.878561 C 344321.156646,291578.002063 337579.995966,277988.605998 332226.539628,267167.200497 C 326873.08329,256345.808941 320318.365619,243101.174181 317660.503458,237734.680358 L 312828.01666,227977.440411 L 307956.611227,237848.810642 C 305277.331336,243278.065664 300168.659011,253625.659672 296603.987468,260843.476387 C 293039.332657,268061.293102 289367.349365,275526.724429 288444.030483,277433.320681 C 284712.632512,285138.404689 273560.172496,307646.402726 273395.286654,307804.804684 C 273298.237567,307898.088936 271268.768246,308258.885651 268885.529904,308606.519386 C 266502.288772,308954.139178 260318.240051,309858.117961 255143.202046,310615.351832 C 249968.162646,311372.585702 240441.387788,312763.58079 233972.589236,313706.448928 C 227503.790684,314649.331009 214912.847064,316485.538785 205992.714059,317786.930792 C 197072.581055,319088.3228 188882.897209,320280.367258 187793.41523,320435.938619 C 186703.933252,320591.496035 185729.42237,320790.000462 185627.836099,320877.05182 C 185429.745804,321046.818003 187905.965678,323516.14558 202030.961155,337234.558367 C 215791.827341,350599.31926 219561.463489,354274.035544 224741.222876,359372.919298 C 227359.089937,361949.921163 229603.297096,364122.69127 229728.35098,364201.306608 C 229853.399287,364279.949834 233992.054829,368299.803907 238925.351366,373134.38228 C 243858.649297,377968.960652 248048.093862,382012.867839 248235.22988,382120.834949 C 248422.365898,382228.760227 248684.79165,382521.39948 248818.398683,382771.049891 C 249060.596114,383223.597036 248690.352451,385538.928905 244004.370733,412875.704679 C 243117.283511,418050.749656 240995.089086,430474.552717 239288.384672,440484.176067 C 237581.678864,450493.785473 235743.139679,461262.901594 235202.7408,464415.560718 C 234662.343315,467568.205899 234220.19827,470313.732947 234220.19827,470516.741232 C 234220.19827,470764.969372 236632.483014,469612.971606 241586.580963,466998.893085 C 245638.091723,464861.066227 250401.479849,462349.781653 252171.888065,461418.263797 L 252171.888065,461418.263797" transform="matrix(1.0, 0.0, 0.0, 1.0, -162011.93137667354, -211106.45603627164)" stroke_scale="True" mktablength="5160.23622047244" mktabpositions="" type="elem path" id="meerk40t:17" label="None-2" lock="False" label_display="False" hidden="False" stroke-linecap="butt" stroke-linejoin="miter" fill-rule="evenodd" inkscape:label="None-2" stroke="#000000" stroke-width="2580.1195035" fill="none" />
			<path d="M 314282.456194,404766.500463 C 314371.278419,402825.853368 314444.274393,400214.898265 314444.776371,398964.359422 C 314445.585113,396935.824338 314497.205188,396674.29378 314923.70525,396538.94098 C 315255.024699,396433.804469 316887.819819,397220.75265 320244.309915,399103.351563 C 322970.441089,400632.404555 325153.153149,401712.284809 325238.489416,401574.199017 C 325321.873545,401439.2227 325316.714327,401252.765747 325227.334348,401159.690652 C 325137.675493,401066.545839 322935.386289,399709.071729 320333.466792,398142.942082 C 317363.945988,396355.55167 315579.734771,395132.928383 315541.026687,394858.932037 C 315495.569786,394537.624261 316274.221387,393956.989053 318491.123729,392658.901735 C 324871.752627,388922.776804 325631.761321,388430.433955 325390.630593,388189.303227 C 325237.234471,388035.907105 323419.739321,388887.373408 320310.682566,390569.19505 C 317286.487988,392205.099644 315319.082675,393130.161505 315068.539858,393034.032711 C 314718.702997,392899.753586 314686.185975,392512.603024 314813.841779,390002.224799 C 315045.518588,385446.453395 315684.076484,368350.698902 315684.076484,366703.792622 C 315684.076484,365317.622102 315723.95585,365211.607129 316241.202387,365221.130768 C 316704.054026,365229.497068 317342.974461,366176.171873 320017.234572,370815.132193 C 321787.655337,373886.191998 323329.439049,376456.919138 323443.443839,376527.851424 C 324305.856052,377064.410171 323613.474956,375460.729778 320868.826369,370564.575433 C 318215.956101,365832.149591 317747.777917,364845.065554 318024.716412,364568.127059 C 318301.668851,364291.188565 319817.614638,365022.542678 327234.047331,369011.064955 C 332116.843483,371637.00968 337532.51721,374538.80528 339268.887131,375459.502721 C 341841.90106,376823.823253 342424.962495,377233.088736 342420.793289,377671.929092 C 342416.610138,378105.122195 341497.725396,378760.552131 337719.531917,381025.002948 C 333577.529854,383507.507448 332594.377979,384276.816679 333563.837009,384276.816679 C 333712.478284,384276.816679 335973.443143,383048.253318 338588.204912,381546.683624 C 343112.268036,378948.654457 344113.867604,378566.607338 344181.92746,379413.012029 C 344194.476911,379568.680997 344228.499867,379974.59996 344257.503042,380315.066564 C 344286.506218,380655.519224 344331.963118,383190.424654 344358.595842,385948.180445 C 344405.02881,390781.113445 344424.689617,390962.271741 344902.056787,390962.271741 C 345382.882029,390962.271741 345397.272066,390797.190686 345397.272066,385283.938006 C 345397.272066,379799.981322 345414.422982,379600.152231 345898.608687,379446.491176 C 346257.773974,379332.430611 347760.933265,380029.943038 351199.203949,381905.890742 C 353838.799687,383346.079677 356110.961445,384524.417346 356248.447652,384524.417346 C 357515.579659,384524.417346 355082.938311,382659.345833 348678.102916,378720.338112 C 346267.520714,377237.815696 346298.322644,377192.554009 351956.619089,373903.817005 C 356176.274365,371451.235974 357227.513984,370658.291944 356259.323843,370658.291944 C 356121.140444,370658.291944 353824.284156,371885.34937 351155.099601,373385.078478 C 347958.238521,375181.295337 346147.631626,376062.866379 345849.637941,375968.299294 C 345428.157659,375834.577922 345397.272066,375420.15322 345397.272066,369898.771284 C 345397.272066,364137.903993 345383.328231,363972.836882 344902.056787,363972.836882 C 344424.815111,363972.836882 344406.827565,364137.903993 344406.827565,368519.056759 C 344406.827565,373663.188255 344253.110735,375273.868453 343743.463588,375469.430731 C 343549.560627,375543.890806 341642.950431,374525.837514 339503.896516,373205.788655 C 334673.152698,370224.638694 330673.447466,367769.952144 323652.643186,363477.607659 C 320645.487974,361639.113095 318181.208066,360079.17451 318176.453218,360011.086766 C 318131.275195,359363.855806 318873.826208,359283.079173 326401.042664,359116.436408 L 334254.837666,358942.570737 L 334254.837666,357991.168973 L 334254.837666,357039.767208 L 326360.215117,357039.767208 C 318895.257881,357039.767208 318459.094741,357014.947183 318346.135739,356582.981137 C 318251.457103,356220.985253 318797.818366,355775.214811 320979.066324,354434.738236 C 332525.76037,347338.734858 340773.203761,342245.609908 341887.079083,341523.193792 C 342612.088753,341052.979808 343392.051073,340703.868027 343620.33953,340747.37279 C 344182.276056,340854.461438 344351.777307,342454.474603 344382.342192,347940.118491 C 344405.907272,352161.949005 344426.404708,352335.187204 344902.056787,352335.187204 C 345383.481613,352335.187204 345397.272066,352170.120092 345397.272066,346409.238857 C 345397.272066,340758.583633 345419.582201,340476.207043 345878.404071,340330.59158 C 346441.734981,340151.803735 346924.888842,340387.342986 352169.485665,343397.286965 C 354328.060948,344636.126932 356194.429238,345649.732142 356316.939767,345649.732142 C 356812.182933,345649.732142 356495.588173,344920.581154 355858.773256,344594.546418 C 353294.237179,343281.539196 347450.459848,339620.12533 347211.866898,339176.850835 C 346937.019978,338666.185788 347164.597299,338482.47577 351545.03893,335679.37463 C 356874.860468,332268.712737 356941.037906,332217.48309 356490.219797,331850.132773 C 356249.939643,331654.33345 354917.090345,332272.854056 351235.262705,334288.728138 C 348008.129561,336055.649001 346145.777096,336939.980922 345849.763435,336846.027366 C 345428.840907,336712.445432 345397.272066,336306.205761 345397.272066,331024.08608 C 345397.272066,325510.825033 345382.909916,325345.757922 344902.056787,325345.757922 C 344424.382852,325345.757922 344405.502901,325523.402372 344369.123437,330359.843641 C 344348.347123,333117.599431 344305.539552,335485.360118 344273.887048,335621.549548 C 344242.234544,335757.78081 344203.470684,336163.643998 344187.85359,336523.590139 C 344172.097057,336883.522336 343995.3729,337240.930699 343795.013943,337317.803058 C 343588.505756,337397.004038 341268.572421,336219.126515 338438.15531,334597.890834 C 334763.536632,332493.09692 333394.001106,331821.631575 333250.22623,332054.270508 C 333115.389351,332272.421797 333490.088069,332635.435582 334459.630762,333226.012744 C 335232.244682,333696.631098 336532.925554,334495.445483 337350.034249,335001.146525 C 338167.142944,335506.847567 339643.51613,336408.218853 340630.865099,337004.178335 C 343172.644839,338538.432377 343114.596657,338727.692041 339516.613293,340637.091004 C 334947.874123,343061.658872 332140.338844,344564.55323 325096.373856,348356.369835 C 320102.124635,351044.810825 318448.413764,351827.77107 318163.304182,351638.88789 C 317957.367692,351502.517189 317809.047126,351296.901407 317833.699825,351182.087875 C 317858.380412,351067.330118 319276.914572,348471.559851 320986.038241,345413.844295 C 323182.70808,341483.900066 324005.240927,339799.763749 323792.290688,339668.147896 C 323626.58216,339565.800151 323411.707672,339616.137393 323314.784079,339780.256324 C 323217.87443,339944.31948 321695.333209,342529.882859 319931.396327,345525.952724 C 317380.776196,349858.23235 316630.458468,350955.877049 316266.120019,350887.914801 C 316014.154931,350840.924079 315794.902079,350785.28818 315778.880614,350764.093551 C 315762.845204,350743.038361 315566.934331,345544.498023 315343.470441,339211.877747 C 315119.992607,332879.271414 314871.443759,326734.075793 314791.113329,325555.877562 C 314656.973642,323589.085777 314684.024681,323401.318103 315121.74953,323262.409625 C 315447.61694,323158.946374 317120.179875,323930.89099 320407.606159,325701.91134 C 323589.352122,327415.979492 325299.92595,328209.550995 325462.497115,328046.965886 C 325625.082224,327884.380777 325609.242028,327740.034204 325415.645832,327620.396105 C 325254.733983,327520.976565 322943.613151,326164.14945 320279.824861,324605.298484 C 317287.199124,322853.994716 315436.573423,321624.260073 315436.573423,321386.949956 C 315436.573423,321151.661694 317354.478125,319853.936915 320388.293949,318036.427821 C 323111.747907,316404.873703 325340.223631,314930.675756 325340.488564,314760.449425 C 325340.739553,314590.223095 325255.152298,314450.938133 325150.266775,314450.938133 C 325045.409141,314450.938133 322805.34609,315674.342275 320172.415504,317169.6233 C 314380.620789,320458.848339 314446.589069,320458.179034 314445.236517,317227.908528 C 314444.734539,316041.079064 314371.75251,313482.23207 314282.916341,311541.598919 L 314121.502514,308013.167402 L 312955.616689,308013.167402 L 311789.744808,308013.167402 L 311632.29103,309161.958086 C 311545.699818,309793.808997 311474.251611,311325.887801 311473.540475,312566.596241 C 311470.751708,316560.960985 311189.614725,319612.248433 310809.714957,319758.031222 C 310620.274023,319830.678599 308286.550236,318654.348842 305623.668295,317143.855094 C 302125.717999,315159.675348 300707.072288,314472.509245 300511.830719,314667.73687 C 300363.203388,314816.364201 300289.886707,314978.544939 300348.897014,315028.129214 C 300407.879434,315077.769265 302663.503804,316424.883105 305361.315051,318021.84257 C 309430.61396,320430.639962 310253.355965,321011.428552 310189.702361,321430.259505 C 310134.2059,321795.002325 308772.883292,322715.71371 305284.58213,324747.595314 C 302628.97887,326294.440638 300456.19482,327702.539233 300456.19482,327876.683781 C 300456.19482,328050.842272 300567.606057,328174.482252 300703.809431,328151.447037 C 300840.040693,328128.439711 303030.909896,326986.077134 305572.52231,325612.935732 C 308388.228677,324091.719176 310347.156139,323175.246716 310586.613607,323267.122641 C 311088.591645,323459.756713 311086.667396,323800.306981 310498.906888,338811.884913 C 310041.423626,350495.507413 309980.977104,351087.953049 309246.360133,351089.960961 C 309178.314221,351090.142231 307628.373365,348529.092112 305802.135431,345398.743123 C 303893.349997,342126.864214 302329.381644,339707.176688 302123.403323,339707.176688 C 301628.466921,339707.176688 301668.541501,339791.118571 305043.59084,345825.982208 C 306674.182834,348741.624036 308008.314965,351235.339378 308008.314965,351367.554816 C 308008.314965,352119.824682 306560.233819,351496.674723 299414.018694,347669.036407 C 283852.507088,339334.067568 283371.179868,339060.963627 283371.179868,338566.584979 C 283371.179868,338151.365478 285390.749066,336803.67994 292408.917961,332535.597728 C 292665.038311,332379.845098 292700.915797,332229.363237 292524.512348,332050.854269 C 292347.174662,331871.411064 290743.605819,332666.139905 287298.04251,334641.074889 C 284094.084018,336477.547598 282182.872357,337434.72211 281920.756159,337334.131288 C 281559.345915,337195.390136 281514.112116,336520.118124 281514.112116,331261.95395 C 281514.112116,325510.894752 281500.168282,325345.827641 281018.896838,325345.827641 C 280550.425834,325345.827641 280523.681559,325510.894752 280523.681559,328402.422113 C 280523.681559,333425.507182 280259.250684,336689.326555 279839.220561,336850.503336 C 279639.516964,336927.194426 278179.736942,336278.290204 276595.271152,335408.613253 C 275010.805363,334538.936302 272934.442927,333409.38811 271981.144801,332898.513905 C 271027.860619,332387.639701 270113.479735,331862.500954 269949.221366,331731.540461 C 269605.07359,331457.167632 269133.451279,331674.789055 269134.03692,332107.786945 C 269134.260021,332269.981626 271311.450323,333793.122432 273972.226746,335492.527249 C 277711.753972,337880.92481 278793.739746,338686.948157 278738.313004,339043.003968 C 278690.903967,339347.397873 277112.963892,340417.879983 274085.827165,342199.232715 C 271566.399391,343681.82485 269393.629285,344939.349555 269257.439854,344993.758396 C 269099.34466,345056.923966 269109.63521,345199.192909 269285.885277,345387.337066 C 269496.144355,345611.749137 270733.729377,345026.805284 274476.22664,342934.142506 C 277179.057667,341422.812128 279561.863751,340218.901467 279771.341975,340258.766889 C 280201.788142,340340.617197 280435.905122,343197.51365 280492.140606,349054.426073 C 280521.980412,352159.67616 280550.146957,352335.256923 281018.855006,352335.256923 C 281499.680248,352335.256923 281514.070285,352170.189811 281514.070285,346656.923187 C 281514.070285,341298.363406 281540.56357,340970.195264 281983.893841,340829.474087 C 282485.704553,340670.20761 283182.547677,341073.086818 294389.765131,348001.819958 C 297862.488241,350148.793971 302241.884084,352849.101164 304121.763949,354002.521201 C 306564.988667,355501.594949 307517.310724,356216.049135 307461.172847,356507.837814 C 307390.477607,356875.146299 306595.483833,356922.583224 299524.356255,356981.412261 L 291666.060183,357046.808845 L 291666.060183,358033.767387 L 291666.060183,359020.725929 L 295813.528229,359052.65731 C 303520.477922,359112.058044 307375.460097,359347.4718 307453.866278,359763.513987 C 307500.159808,360008.869697 306114.449434,361004.571023 303371.000017,362697.352518 C 301086.930225,364106.697692 298661.037693,365603.66592 297980.104484,366023.974921 C 283483.260409,374972.179652 282358.202131,375633.856426 281923.726195,375467.129998 C 281559.10887,375327.20362 281514.070285,374686.819082 281514.070285,369641.395989 C 281514.070285,364137.945825 281499.708135,363972.878713 281018.855006,363972.878713 C 280560.981316,363972.878713 280523.639728,364137.945825 280523.639728,366161.990993 C 280523.639728,371273.242928 280209.680353,375830.603929 279847.991232,375969.400857 C 279565.991126,376077.605011 272184.013648,372164.769867 269961.254895,370728.889577 C 269577.687899,370481.121584 269378.695438,370462.074306 269255.543493,370661.401419 C 269161.143734,370814.058518 269156.40283,371015.100722 269244.388425,371108.175816 C 269332.792335,371201.32063 271479.320146,372503.075177 274014.420789,374001.117082 C 277317.031908,375952.682199 278641.500962,376865.208553 278686.44194,377220.037307 C 278736.500305,377615.540226 277868.301401,378273.758928 274374.520312,380488.946179 C 268833.826166,384001.941872 269014.566147,383865.808216 269284.295679,384322.928939 C 269466.443988,384631.617545 270384.533932,384216.955798 274580.59624,381930.905981 C 278600.575808,379740.789745 279720.000777,379228.911584 279961.480101,379470.390908 C 280174.207238,379683.118045 280317.089709,381466.464745 280434.050592,385368.842013 C 280590.137874,390576.194854 280633.196435,390962.369348 281057.702529,390962.369348 C 281487.925595,390962.369348 281513.693801,390627.354783 281513.693801,385036.421001 C 281513.693801,379387.857352 281536.143375,379103.347355 281994.337773,378957.927106 C 282331.848284,378850.838458 283935.696004,379648.704662 287379.850986,381637.123334 C 290548.740734,383466.624125 292372.343283,384385.174216 292532.320895,384232.41951 C 292853.182468,383926.017693 292686.52576,383807.104674 287518.229598,380654.668651 C 284716.29974,378945.614701 283246.968191,377906.241285 283246.968191,377633.276783 C 283246.968191,377225.419627 284998.411398,376241.235908 298970.172501,368798.01711 C 301557.688018,367419.557529 304523.165109,365823.936672 305560.126241,365252.197631 C 307198.457063,364348.874207 307485.769771,364261.167489 307752.752368,364582.851748 C 308007.464391,364889.755543 307536.915755,365894.715576 305000.741437,370460.428934 C 303318.152885,373489.475966 301905.447247,376110.261472 301861.426562,376284.406019 C 301817.364046,376458.536623 301930.587981,376601.014723 302112.819952,376601.014723 C 302295.121643,376601.014723 303933.020206,374038.263456 305752.620875,370905.990218 C 308109.226494,366849.296534 309187.768141,365210.979656 309501.769347,365210.979656 C 310047.266093,365210.979656 310098.20292,365884.327419 310610.290238,379863.272386 C 311074.215552,392527.815747 311074.466541,392853.711045 310620.050922,393027.995031 C 310422.648058,393103.710052 308122.445249,392001.422055 305508.506167,390578.39798 C 302894.567084,389155.359961 300660.471994,387991.04979 300543.845763,387991.04979 C 299649.390618,387991.04979 301042.965315,389010.664792 305281.807307,391457.584626 C 309081.516123,393651.005552 310217.074108,394419.701254 310225.370689,394804.049105 C 310233.73699,395191.492487 309198.686163,395925.105502 305593.479893,398086.915755 C 303040.01522,399618.08821 300784.600007,400976.719657 300581.466228,401106.104497 C 300321.065121,401271.952463 300289.60783,401418.836814 300474.795895,401604.066711 C 300660.039735,401789.296607 302152.434386,401061.972261 305534.288316,399138.294812 C 308172.489671,397637.603579 310393.240511,396411.48039 310469.290184,396413.571965 C 311116.730303,396431.280635 311232.967501,397030.698188 311359.758787,401004.969866 C 311433.382232,403312.186423 311553.801186,405896.313588 311627.396744,406747.473127 L 311761.257554,408295.029587 L 312941.07327,408295.029587 L 314120.902929,408295.029587 L 314282.456194,404766.500463" transform="matrix(1.0, 0.0, 0.0, 1.0, -162011.93137667354, -211106.45603627164)" stroke_scale="True" mktablength="5160.23622047244" mktabpositions="" type="elem path" id="meerk40t:18" label="None-4" lock="False" label_display="False" hidden="False" stroke-linecap="butt" stroke-linejoin="miter" fill-rule="evenodd" inkscape:label="None-4" stroke="#000000" stroke-width="2580.1195035" fill="none" />
			<path d="M 310846.931051,262353.886472 C 309842.472997,261916.301061 308513.318815,260557.139748 308083.235187,259527.791949 C 307558.988845,258273.111787 307625.500935,256011.82622 308221.000271,254844.61573 C 309169.027627,252986.306977 311057.692108,251810.827794 313101.357646,251807.118734 C 313519.533239,251806.351823 314466.096493,252112.154055 315204.826896,252486.657559 C 319142.551784,254482.940554 319067.854663,260421.647509 315082.260591,262231.877921 C 313907.548319,262765.410857 311922.838707,262822.594521 310846.972883,262353.886472 L 310846.931051,262353.886472" transform="matrix(1.0, 0.0, 0.0, 1.0, -162011.93137667354, -211106.45603627164)" stroke_scale="True" mktablength="5160.23622047244" mktabpositions="" type="elem path" id="meerk40t:19" label="None-5" lock="False" label_display="False" hidden="False" stroke-linecap="butt" stroke-linejoin="miter" fill-rule="evenodd" inkscape:label="None-5" stroke="#000000" stroke-width="2580.1195035" fill="none" />
		</g>
	</g>
	<text transform="matrix(682.65625, 0.0, 0.0, 682.65625, 365132.7933215839, 46167.109611415915)" font-family="sans-serif" font-style="normal" font-variant="normal" font-stretch="normal" font-size="16.0" line_height="16.0" text-anchor="start" dominant-baseline="hanging" text="Laser auf 15mA eingestellt" anchor="start" baseline="hanging" stroke_scale="True" underline="False" strikethrough="False" overline="False" texttransform="" raw_bbox="(1, 4, 254, 23)" font_style="normal" font_variant="normal" font_weight="400" font_stretch="normal" font_size="16.0" font_family="sans-serif" offset_x="0" offset_y="0" type="elem text" id="meerk40t:7" lock="False" label_display="False" hidden="False" bounds_with_variables_translated="False" ascent="19.312500476837158" fill="#000000">Laser auf 15mA eingestellt</text>
</svg>