<svg version="1.1" xmlns="http://www.w3.org/2000/svg" xmlns:xlink="http://www.w3.org/1999/xlink" xmlns:ev="http://www.w3.org/2001/xml-events" xmlns:meerk40t="https://github.com/meerk40t/meerk40t/wiki/Namespace" width="320.0mm" height="200.0mm" viewBox="0 0 825637 516023" xmlns:inkscape="http://www.inkscape.org/namespaces/inkscape">
	<g type="op raster" lock="False" color="black" stopop="False" allowed_attributes="[]" output="False" speed="150.0" power="1000" dwell_time="50.0" references="meerk40t:7" id="meerk40t:3" />
	<g type="op cut" lock="False" speed="3.0" color="#ff0000" frequency="30.0" id="meerk40t:49" dangerous="False" kerf="0.0" allowed_attributes="['stroke']" power="400.0" dwell_time="50.0" passes_custom="False" passes="2" hex_color="#ff0000ff" coolant="0" references="path6" />
	<text transform="matrix(682.65625, 0.0, 0.0, 682.65625, 365132.7933215839, 46167.109611415915)" font-family="sans-serif" font-style="normal" font-variant="normal" font-stretch="normal" font-size="16.0" line_height="16.0" text-anchor="start" dominant-baseline="hanging" text="Laser auf 15mA eingestellt" anchor="start" baseline="hanging" stroke_scale="True" underline="False" strikethrough="False" overline="False" texttransform="" raw_bbox="(1, 4, 254, 23)" font_style="normal" font_variant="normal" font_weight="400" font_stretch="normal" font_size="16.0" font_family="sans-serif" offset_x="0" offset_y="0" type="elem text" id="meerk40t:7" lock="False" label_display="False" hidden="False" bounds_with_variables_translated="False" ascent="19.312500476837158" fill="#000000">Laser auf 15mA eingestellt</text>
	<g inkscape:label="Ebene 1" label_display="False" />
	<g inkscape:label="Ebene 1" label_display="False">
		<path d="M 120.50862,286.07373 C 119.60384,285.16895 119.47789,283.89358 120.19234,282.87111 C 120.44375,282.51131 128.87187,271.91802 138.92149,259.33046 C 148.97111,246.74291 157.2871,236.29243 157.40148,236.10717 C 157.53989,235.88297 152.83557,229.80047 143.33353,217.91785 C 134.8557,207.31605 129.00014,199.76954 128.91607,199.33698 C 128.73048,198.38204 129.38031,197.03958 130.21147,196.66088 C 130.69359,196.44121 139.07858,196.35963 161.17532,196.35963 L 191.47802,196.35963 L 192.25142,197.13303 C 192.81451,197.69612 193.02481,198.16075 193.02481,198.84172 C 193.02481,199.67956 191.57065,201.59896 179.06804,217.26378 C 171.39182,226.88151 164.92162,235.01253 164.68982,235.3327 C 164.2794,235.89962 164.69582,236.45037 180.63097,256.39457 L 196.99356,276.87429 L 196.99356,238.22256 L 196.99356,199.57082 L 178.96638,175.32596 C 169.05142,161.99128 160.8528,151.17822 160.74721,151.29692 C 160.64163,151.41563 152.50183,162.37854 142.65878,175.65894 L 124.76231,199.80512 L 124.76231,236.95582 L 124.76231,274.10653 L 124.07734,274.92058 C 123.50701,275.59838 123.20095,275.73463 122.24877,275.73463 C 121.29659,275.73463 120.99054,275.59838 120.42021,274.92058 L 119.73523,274.10653 L 119.73523,236.05279 L 119.73523,197.99904 L 122.72654,193.93819 C 137.20618,174.28135 158.79779,145.3112 159.32563,144.83203 C 160.31438,143.93444 161.60268,144.03533 162.70442,145.09661 C 163.58323,145.94315 201.39359,196.73807 201.98273,197.86359 C 202.20608,198.29029 202.28523,209.73403 202.28523,241.59913 C 202.28523,279.57541 202.23723,284.84952 201.88562,285.52951 C 201.23372,286.79014 199.88624,287.20322 198.52737,286.559 C 198.1931,286.40053 189.60039,275.85826 179.43246,263.13173 C 169.26453,250.40521 160.91311,240.0276 160.87373,240.07038 C 160.83433,240.11318 153.34213,249.49458 144.22433,260.91796 L 127.64651,281.68776 L 159.13772,281.82005 L 190.62894,281.95234 L 191.23156,282.555 C 192.15362,283.47712 192.08172,285.35711 191.09183,286.20858 L 190.34947,286.84713 L 155.81575,286.84713 L 121.28202,286.84713 L 120.50862,286.07373 M 173.14371,216.46796 L 185.07144,201.51901 L 161.09189,201.45141 C 147.90314,201.41431 137.06334,201.43291 137.00343,201.49281 C 136.83418,201.66206 160.77556,231.58459 161.00909,231.49568 C 161.12288,231.45238 166.58346,224.68988 173.14371,216.46795 L 173.14371,216.46796" transform="matrix(997.5176675834964, 0.0, 0.0, 997.5176675834964, -59836.11089499673, -137931.03695431564)" stroke_scale="True" mktablength="5160.23622047244" mktabpositions="" type="elem path" id="path6" lock="False" hidden="False" label_display="False" points_dirty="True" stroke-linecap="butt" stroke-linejoin="miter" fill-rule="evenodd" stroke="none" stroke-width="1.0" fill="#000000" />
	</g>
</svg>